<svg xmlns="http://www.w3.org/2000/svg" viewBox="0 0 64 64">
  <defs>
    <linearGradient id="g" x1="0" y1="0" x2="1" y2="1">
      <stop offset="0" stop-color="#00d4ff"/>
      <stop offset="1" stop-color="#7a5cff"/>
    </linearGradient>
  </defs>
  <rect x="4" y="4" width="56" height="56" rx="12" ry="12" fill="url(#g)"/>
  <g fill="#0d0f1a">
    <!-- Stylized "64" mark -->
    <path d="M18 41c0-9 5-15 12-15 2 0 4 .5 5 1.2v4c-1.3-.9-2.9-1.4-4.7-1.4-4.3 0-7.3 3.4-7.3 8.7 1.7-2 4.4-3.2 7.5-3.2 5 0 9.1 3 9.1 8 0 5.1-4.3 8.7-10 8.7-7.7 0-11.6-5.7-11.6-10zM33 43.3c-3.4 0-6 2-6 4.8s2.4 4.7 5.9 4.7 6.1-2 6.1-4.9-2.5-4.6-6-4.6z"/>
    <path d="M48 23h4v10h5v4h-5v13h-4V37h-8v-3.8c0-6 3.7-10.2 9-10.2zm0 4c-2.8 0-5 2.7-5 6.2V33h5v-6z"/>
  </g>
</svg>




